<svg width="110" height="104" viewBox="0 0 110 104" fill="none" xmlns="http://www.w3.org/2000/svg">
<g clip-path="url(#clip0_176_2068)">
<path d="M55.375 10V25.9999C55.375 25.9999 62.375 18 75.3749 18C88.3748 18 95.3748 25.9999 95.3748 25.9999C95.3748 25.9999 87.3748 33.9999 75.3749 33.9999C63.375 33.9999 55.375 25.9999 55.375 25.9999" fill="#FFE1E6"/>
<path d="M54.625 4V19.9999M54.625 19.9999C54.625 19.9999 61.6249 12 74.6249 12C87.6248 12 94.6248 19.9999 94.6248 19.9999C94.6248 19.9999 86.6248 27.9999 74.6249 27.9999C62.6249 27.9999 54.625 19.9999 54.625 19.9999Z" stroke="#FF3F56" stroke-width="4" stroke-miterlimit="10" stroke-linecap="round" stroke-linejoin="round"/>
<path d="M94.6246 52.0004C94.6246 72.1283 84.6247 100 67.9607 100C60.4568 100 57.9608 93.3362 54.6248 93.3362C51.2888 93.3362 48.7928 100 41.2889 100C24.625 100 14.625 72.1283 14.625 52.0004C14.625 37.6244 19.433 26.2965 28.5689 21.6965C34.6809 18.6165 41.9689 20.1445 47.6248 24.0005C49.8488 25.5205 51.8248 28.0005 54.6248 28.0005" stroke="#19181B" stroke-width="4" stroke-miterlimit="10" stroke-linecap="round" stroke-linejoin="round"/>
<path d="M66.3749 54L66.7863 53.7159L66.3749 53.1201L65.9635 53.7159L66.3749 54ZM66.3749 54C66.7863 53.7159 66.7863 53.7158 66.7863 53.7159L66.7873 53.7172L66.7896 53.7207L66.7986 53.7337L66.8329 53.7839C66.8628 53.8277 66.9064 53.8919 66.9617 53.9742C67.0724 54.1388 67.2301 54.3759 67.4192 54.6672C67.7972 55.2493 68.302 56.0497 68.8074 56.9211C69.3119 57.7909 69.8221 58.7398 70.2077 59.6173C70.5842 60.4743 70.8749 61.3344 70.8749 62C70.8749 64.4841 68.859 66.4999 66.3749 66.4999C63.8908 66.4999 61.8749 64.4841 61.8749 62C61.8749 61.3344 62.1656 60.4743 62.5422 59.6173C62.9277 58.7398 63.4379 57.7909 63.9424 56.9211C64.4479 56.0497 64.9526 55.2493 65.3306 54.6672C65.5197 54.3759 65.6774 54.1388 65.7881 53.9742C65.8434 53.8919 65.887 53.8277 65.9169 53.7839L65.9512 53.7337L65.9602 53.7207L65.9626 53.7172L65.9635 53.7159C65.9635 53.7158 65.9635 53.7159 66.3749 54ZM50.375 54L50.7864 53.7159L50.375 53.1201L49.9636 53.7159L50.375 54ZM50.375 54C50.7864 53.7159 50.7863 53.7158 50.7864 53.7159L50.7873 53.7172L50.7897 53.7207L50.7987 53.7337L50.833 53.7839C50.8629 53.8277 50.9065 53.8919 50.9618 53.9742C51.0725 54.1388 51.2302 54.3759 51.4193 54.6672C51.7973 55.2493 52.302 56.0497 52.8075 56.9211C53.312 57.7909 53.8222 58.7398 54.2077 59.6173C54.5843 60.4743 54.875 61.3344 54.875 62C54.875 64.4841 52.8591 66.4999 50.375 66.4999C47.8908 66.4999 45.875 64.4841 45.875 62C45.875 61.3344 46.1657 60.4743 46.5422 59.6173C46.9278 58.7398 47.438 57.7909 47.9425 56.9211C48.4479 56.0497 48.9527 55.2493 49.3306 54.6672C49.5198 54.3759 49.6775 54.1388 49.7882 53.9742C49.8435 53.8919 49.8871 53.8277 49.917 53.7839L49.9513 53.7337L49.9603 53.7207L49.9626 53.7172L49.9636 53.7159C49.9636 53.7158 49.9636 53.7159 50.375 54Z" fill="#FFE1E6"/>
<path d="M66.3749 54L66.7863 53.7159M66.3749 54L65.9635 53.7159M66.3749 54C66.7863 53.7159 66.7863 53.7158 66.7863 53.7159M66.3749 54C65.9635 53.7159 65.9635 53.7158 65.9635 53.7159M66.7863 53.7159L66.3749 53.1201L65.9635 53.7159M66.7863 53.7159L66.7873 53.7172L66.7896 53.7207L66.7986 53.7337L66.8329 53.7839C66.8628 53.8277 66.9064 53.8919 66.9617 53.9742C67.0724 54.1388 67.2301 54.3759 67.4192 54.6672C67.7972 55.2493 68.302 56.0497 68.8074 56.9211C69.3119 57.7909 69.8221 58.7398 70.2077 59.6173C70.5842 60.4743 70.8749 61.3344 70.8749 62C70.8749 64.4841 68.859 66.4999 66.3749 66.4999C63.8908 66.4999 61.8749 64.4841 61.8749 62C61.8749 61.3344 62.1656 60.4743 62.5422 59.6173C62.9277 58.7398 63.4379 57.7909 63.9424 56.9211C64.4479 56.0497 64.9526 55.2493 65.3306 54.6672C65.5197 54.3759 65.6774 54.1388 65.7881 53.9742C65.8434 53.8919 65.887 53.8277 65.9169 53.7839L65.9512 53.7337L65.9602 53.7207L65.9626 53.7172L65.9635 53.7159M50.375 54L50.7864 53.7159M50.375 54L49.9636 53.7159M50.375 54C50.7864 53.7159 50.7863 53.7158 50.7864 53.7159M50.375 54C49.9636 53.7159 49.9636 53.7158 49.9636 53.7159M50.7864 53.7159L50.375 53.1201L49.9636 53.7159M50.7864 53.7159L50.7873 53.7172L50.7897 53.7207L50.7987 53.7337L50.833 53.7839C50.8629 53.8277 50.9065 53.8919 50.9618 53.9742C51.0725 54.1388 51.2302 54.3759 51.4193 54.6672C51.7973 55.2493 52.302 56.0497 52.8075 56.9211C53.312 57.7909 53.8222 58.7398 54.2077 59.6173C54.5843 60.4743 54.875 61.3344 54.875 62C54.875 64.4841 52.8591 66.4999 50.375 66.4999C47.8908 66.4999 45.875 64.4841 45.875 62C45.875 61.3344 46.1657 60.4743 46.5422 59.6173C46.9278 58.7398 47.438 57.7909 47.9425 56.9211C48.4479 56.0497 48.9527 55.2493 49.3306 54.6672C49.5198 54.3759 49.6775 54.1388 49.7882 53.9742C49.8435 53.8919 49.8871 53.8277 49.917 53.7839L49.9513 53.7337L49.9603 53.7207L49.9626 53.7172L49.9636 53.7159" stroke="#FFE1E6"/>
<path d="M62.6249 52L63.4477 51.4317M62.6249 52L61.802 51.4317M62.6249 52C63.4477 51.4317 63.4476 51.4316 63.4477 51.4317M62.6249 52C61.802 51.4317 61.8021 51.4316 61.802 51.4317M63.4477 51.4317L62.6249 50.2402L61.802 51.4317M63.4477 51.4317L63.4489 51.4333L63.4514 51.4371L63.4608 51.4507L63.496 51.5021C63.5264 51.5468 63.5707 51.6119 63.6266 51.6952C63.7386 51.8617 63.8978 52.1011 64.0886 52.3948C64.4695 52.9815 64.979 53.7894 65.4899 54.6702C65.9989 55.5477 66.5193 56.5146 66.9154 57.4162C67.2935 58.2766 67.6249 59.2207 67.6249 59.9999C67.6249 62.7602 65.3852 64.9999 62.6249 64.9999C59.8646 64.9999 57.6249 62.7602 57.6249 59.9999C57.6249 59.2207 57.9563 58.2766 58.3344 57.4162C58.7305 56.5146 59.2509 55.5477 59.7599 54.6702C60.2708 53.7894 60.7802 52.9815 61.1612 52.3948C61.352 52.1011 61.5112 51.8617 61.6231 51.6952C61.6791 51.6119 61.7233 51.5468 61.7538 51.5021L61.7889 51.4507L61.7983 51.4371L61.8009 51.4333L61.802 51.4317M46.625 52L47.4478 51.4317M46.625 52L45.8021 51.4317M46.625 52C47.4478 51.4317 47.4478 51.4316 47.4478 51.4317M46.625 52C45.8021 51.4317 45.8021 51.4316 45.8021 51.4317M47.4478 51.4317L46.625 50.2402L45.8021 51.4317M47.4478 51.4317L47.4489 51.4333L47.4515 51.4371L47.4609 51.4507L47.4961 51.5021C47.5265 51.5468 47.5707 51.6119 47.6267 51.6952C47.7387 51.8617 47.8979 52.1011 48.0886 52.3948C48.4696 52.9815 48.9791 53.7894 49.49 54.6702C49.999 55.5477 50.5193 56.5146 50.9155 57.4162C51.2935 58.2766 51.6249 59.2207 51.6249 59.9999C51.6249 62.7602 49.3852 64.9999 46.625 64.9999C43.8647 64.9999 41.625 62.7602 41.625 59.9999C41.625 59.2207 41.9564 58.2766 42.3344 57.4162C42.7306 56.5146 43.251 55.5477 43.76 54.6702C44.2708 53.7894 44.7803 52.9815 45.1613 52.3948C45.352 52.1011 45.5113 51.8617 45.6232 51.6952C45.6792 51.6119 45.7234 51.5468 45.7539 51.5021L45.789 51.4507L45.7984 51.4371L45.801 51.4333L45.8021 51.4317" stroke="#FF3F56" stroke-width="4"/>
</g>
<defs>
<clipPath id="clip0_176_2068">
<rect width="110" height="104" fill="white"/>
</clipPath>
</defs>
</svg>
