<svg width="14" height="24" viewBox="0 0 14 24" fill="none" xmlns="http://www.w3.org/2000/svg">
<g clip-path="url(#clip0_202_19)">
<path d="M1.1235 1.28992C0.832169 1.58125 0.686502 1.93392 0.686502 2.34792C0.686502 2.76192 0.832169 3.11459 1.1235 3.40592L9.5415 11.8239L1.1235 20.2419C0.832169 20.5333 0.686502 20.8859 0.686502 21.2999C0.686502 21.7139 0.832169 22.0666 1.1235 22.3579C1.41483 22.6493 1.7675 22.7949 2.1815 22.7949C2.5955 22.7949 2.95584 22.6493 3.2625 22.3579L12.2785 13.3419C12.4778 13.1119 12.6312 12.8781 12.7385 12.6404C12.8458 12.4028 12.8995 12.1344 12.8995 11.8354C12.8995 11.5364 12.8458 11.2643 12.7385 11.0189C12.6312 10.7736 12.4778 10.5359 12.2785 10.3059L3.2625 1.28992C2.95584 0.983255 2.5955 0.829922 2.1815 0.829922C1.7675 0.829922 1.41483 0.983255 1.1235 1.28992Z" fill="white"/>
</g>
<defs>
<clipPath id="clip0_202_19">
<rect width="12.86" height="23" fill="white" transform="matrix(-1 0 0 -1 13.43 23.3242)"/>
</clipPath>
</defs>
</svg>
