<svg width="85" height="100" viewBox="0 0 85 100" fill="none" xmlns="http://www.w3.org/2000/svg">
<path d="M82.1407 57.1565C82.1261 67.5908 78.043 77.6081 70.7593 85.0795C63.4755 92.5509 53.5653 96.8874 43.1348 97.1674C32.7042 97.4473 22.5757 93.6487 14.9016 86.5788C7.2276 79.5088 2.61308 69.725 2.03878 59.3065C2.00009 58.5935 2.00009 57.875 2.00009 57.1565C1.97785 46.819 5.97535 36.8778 13.1479 29.4334C13.4663 29.1019 13.8624 28.8549 14.3003 28.7151C14.7383 28.5752 15.2041 28.5468 15.6558 28.6324C16.1075 28.718 16.5306 28.915 16.887 29.2054C17.2433 29.4958 17.5216 29.8705 17.6966 30.2956C19.3035 34.1923 21.524 37.8066 24.2736 41.0013C27.6598 34.9893 29.4325 28.2033 29.4192 21.3033C29.4287 15.9918 28.3823 10.7314 26.3407 5.82789C26.1401 5.34718 26.0794 4.81956 26.1656 4.30586C26.2519 3.79215 26.4816 3.31329 26.8282 2.92448C27.1749 2.53567 27.6243 2.25274 28.1248 2.10833C28.6253 1.96391 29.1564 1.96389 29.6569 2.10826C40.0588 5.02445 49.2824 11.1335 56.0259 19.5734C63.3929 28.7284 67.3979 40.1328 67.3727 51.8838C67.3802 52.2529 67.3655 52.622 67.3285 52.9892C70.8349 51.8601 74.1611 50.2333 77.2051 48.1587C77.5849 47.9001 78.0232 47.7403 78.4803 47.6937C78.9374 47.6471 79.3989 47.7153 79.823 47.8919C80.2472 48.0686 80.6206 48.3483 80.9095 48.7056C81.1983 49.0629 81.3935 49.4866 81.4774 49.9384C81.9176 52.3192 82.1396 54.7353 82.1407 57.1565Z" stroke="#19181B" stroke-width="4" stroke-linecap="round" stroke-linejoin="round"/>
<path opacity="0.8" d="M49.258 41.1411C49.5565 40.9994 49.8908 40.9632 50.2106 41.0381C50.5304 41.1129 50.8184 41.2947 51.0313 41.5559C51.2442 41.8173 51.3705 42.1441 51.3911 42.4872C51.4118 42.8303 51.3258 43.1712 51.1459 43.4586C49.2997 46.5025 48.2564 50.0062 48.1224 53.6115C47.9885 57.2169 48.7687 60.795 50.3835 63.9805C52.3219 62.5419 53.8375 60.5622 54.7584 58.2659C54.8292 58.0504 54.9431 57.8535 55.0926 57.6882C55.242 57.5229 55.4235 57.3932 55.6248 57.3077C55.8261 57.2223 56.0425 57.1831 56.2594 57.1929C56.4763 57.2026 56.6888 57.2611 56.8823 57.3643C59.8134 58.9944 62.2309 61.4817 63.842 64.5247C65.453 67.5675 66.1884 71.0355 65.9589 74.5081C66.0059 77.0673 65.5598 79.6101 64.6475 81.984C63.7352 84.3579 62.3754 86.5141 60.6497 88.3232C58.924 90.1322 56.8679 91.557 54.6047 92.5117C52.3415 93.4668 49.9178 93.9322 47.479 93.8804C45.0119 93.8698 42.5717 93.342 40.301 92.3298C38.0303 91.3176 35.9748 89.8403 34.2547 87.9845C32.5346 86.1287 31.1843 83.9315 30.283 81.5217C29.3816 79.1118 28.9472 76.5375 29.0051 73.9493C29.0892 67.0332 31.0353 60.283 34.6189 54.4779C38.2025 48.6727 43.2774 44.0492 49.258 41.1411Z" fill="#FFE1E6"/>
<path d="M42.5033 46.6776C42.776 46.5472 43.0813 46.514 43.3734 46.5829C43.6655 46.6517 43.9286 46.8191 44.123 47.0597C44.3175 47.3003 44.4328 47.6012 44.4517 47.9171C44.4706 48.233 44.392 48.5468 44.2277 48.8114C42.5414 51.6138 41.5885 54.8393 41.4661 58.1587C41.3438 61.478 42.0564 64.7722 43.5313 67.705C45.3019 66.3806 46.6862 64.5579 47.5273 62.4438C47.5919 62.2455 47.696 62.0641 47.8325 61.9119C47.969 61.7597 48.1348 61.6403 48.3186 61.5616C48.5025 61.483 48.7001 61.4469 48.8983 61.4559C49.0964 61.4648 49.2904 61.5187 49.4673 61.6137C52.1444 63.1146 54.3526 65.4045 55.824 68.206C57.2955 71.0074 57.9672 74.2003 57.7577 77.3974C57.8005 79.7535 57.3931 82.0946 56.5598 84.2801C55.7265 86.4656 54.4845 88.4507 52.9083 90.1162C51.3321 91.7818 49.454 93.0934 47.3869 93.9727C45.3197 94.8519 43.106 95.2805 40.8784 95.2329C38.625 95.2227 36.3961 94.7373 34.3221 93.8052C32.2482 92.8732 30.3707 91.513 28.7996 89.8044C27.2284 88.0958 25.9951 86.0731 25.1718 83.8544C24.3485 81.6358 23.9517 79.2657 24.0047 76.8829C24.0814 70.5155 25.859 64.3009 29.1322 58.9563C32.4054 53.6118 37.0408 49.3551 42.5033 46.6776Z" stroke="#FF3F56" stroke-width="4" stroke-linecap="round" stroke-linejoin="round"/>
</svg>
