<svg width="21" height="21" viewBox="0 0 21 21" fill="none" xmlns="http://www.w3.org/2000/svg">
<g id="Frame">
<path id="Vector" d="M2.00167 19.3075C2.11286 19.309 2.22245 19.2809 2.31913 19.2259C2.41581 19.171 2.49609 19.0913 2.55167 18.995C3.38408 17.5769 4.57053 16.3994 5.99482 15.5777C7.4191 14.756 9.03239 14.3183 10.6767 14.3075V18.0575C10.6773 18.1809 10.7144 18.3013 10.7834 18.4036C10.8523 18.506 10.95 18.5856 11.0642 18.6325C11.178 18.6803 11.3034 18.6934 11.4247 18.67C11.5459 18.6467 11.6575 18.5879 11.7454 18.5012L19.2454 11.0012C19.304 10.9431 19.3505 10.874 19.3822 10.7978C19.414 10.7217 19.4303 10.64 19.4303 10.5575C19.4303 10.475 19.414 10.3933 19.3822 10.3171C19.3505 10.2409 19.304 10.1718 19.2454 10.1137L11.7454 2.61371C11.6575 2.52699 11.5459 2.46824 11.4247 2.44488C11.3034 2.42152 11.178 2.4346 11.0642 2.48246C10.95 2.52935 10.8523 2.60897 10.7834 2.7113C10.7144 2.81362 10.6773 2.93407 10.6767 3.05746V6.87621C8.09093 7.20833 5.71415 8.4693 3.98931 10.4241C2.26447 12.3789 1.30925 14.8942 1.30167 17.5012C1.30261 17.9192 1.32974 18.3367 1.38292 18.7512C1.39853 18.8812 1.4546 19.0031 1.54319 19.0995C1.63178 19.196 1.74844 19.2621 1.87667 19.2887L2.00167 19.3075ZM10.9892 13.0575C9.39517 13.0346 7.8152 13.358 6.35843 14.0055C4.90166 14.6529 3.60283 15.6089 2.55167 16.8075C2.73971 14.5402 3.72942 12.4141 5.34327 10.8106C6.95712 9.20703 9.0895 8.23097 11.3579 8.05746C11.5138 8.04338 11.6586 7.97137 11.7639 7.85565C11.8692 7.73993 11.9273 7.58892 11.9267 7.43246V4.56371L17.9204 10.5575L11.9267 16.5512V13.6825C11.9267 13.5167 11.8608 13.3577 11.7436 13.2405C11.6264 13.1233 11.4674 13.0575 11.3017 13.0575H10.9642H10.9892Z" fill="#FF3F56"/>
</g>
</svg>
