<svg width="110" height="104" viewBox="0 0 110 104" fill="none" xmlns="http://www.w3.org/2000/svg">
<path opacity="0.8" d="M47.8908 30.5664H35.4995C33.2184 30.5664 31.3691 32.4157 31.3691 34.6968V80.1316C31.3691 82.4128 33.2184 84.2621 35.4995 84.2621H47.8908C50.172 84.2621 52.0213 82.4128 52.0213 80.1316V34.6968C52.0213 32.4157 50.172 30.5664 47.8908 30.5664Z" fill="#FFE1E6"/>
<path d="M44.6738 51.0654H65.3259" stroke="#FF3F56" stroke-width="4"/>
<path d="M40.5433 22.1523H28.152C25.8708 22.1523 24.0215 24.0016 24.0215 26.2827V71.7175C24.0215 73.9987 25.8708 75.848 28.152 75.848H40.5433C42.8244 75.848 44.6737 73.9987 44.6737 71.7175V26.2827C44.6737 24.0016 42.8244 22.1523 40.5433 22.1523Z" stroke="#19181B" stroke-width="4"/>
<path d="M24.0212 34.5435H15.7603C14.6649 34.5435 13.6143 34.9786 12.8397 35.7532C12.0651 36.5278 11.6299 37.5784 11.6299 38.6739V59.3261C11.6299 60.4215 12.0651 61.4721 12.8397 62.2467C13.6143 63.0213 14.6649 63.4565 15.7603 63.4565H24.0212" stroke="#19181B" stroke-width="4"/>
<path d="M11.6304 49H7.5" stroke="#FF3F56" stroke-width="4"/>
<path opacity="0.8" d="M86.8908 32.5664H74.4995C72.2184 32.5664 70.3691 34.4157 70.3691 36.6968V82.1316C70.3691 84.4128 72.2184 86.2621 74.4995 86.2621H86.8908C89.172 86.2621 91.0213 84.4128 91.0213 82.1316V36.6968C91.0213 34.4157 89.172 32.5664 86.8908 32.5664Z" fill="#FFE1E6"/>
<path d="M81.848 22.1523H69.4567C67.1755 22.1523 65.3262 24.0016 65.3262 26.2827V71.7175C65.3262 73.9987 67.1755 75.848 69.4567 75.848H81.848C84.1292 75.848 85.9784 73.9987 85.9784 71.7175V26.2827C85.9784 24.0016 84.1292 22.1523 81.848 22.1523Z" stroke="#19181B" stroke-width="4"/>
<path d="M85.9785 34.5435H94.2393C95.3348 34.5435 96.3854 34.9786 97.16 35.7532C97.9346 36.5278 98.3698 37.5784 98.3698 38.6739V59.3261C98.3698 60.4215 97.9346 61.4721 97.16 62.2467C96.3854 63.0213 95.3348 63.4565 94.2393 63.4565H85.9785" stroke="#19181B" stroke-width="4"/>
<path d="M98.3691 49H102.5" stroke="#FF3F56" stroke-width="2"/>
</svg>
