<svg width="20" height="20" viewBox="0 0 20 20" fill="none" xmlns="http://www.w3.org/2000/svg">
<g clip-path="url(#clip0_245_1171)">
<path d="M0.260376 9.11288C0.260376 4.22373 4.22385 0.260254 9.113 0.260254C14.0022 0.260254 17.9656 4.22373 17.9656 9.11288C17.9656 14.002 14.0022 17.9655 9.113 17.9655C4.22385 17.9655 0.260376 14.002 0.260376 9.11288ZM9.113 1.69581C5.01669 1.69581 1.69594 5.01657 1.69594 9.11288C1.69594 13.2092 5.01669 16.5299 9.113 16.5299C13.2093 16.5299 16.5301 13.2092 16.5301 9.11288C16.5301 5.01657 13.2093 1.69581 9.113 1.69581Z" fill="white"/>
<path d="M14.4538 14.4537C14.7341 14.1734 15.1886 14.1734 15.4689 14.4537L19.5293 18.5141C19.8096 18.7944 19.8096 19.2489 19.5293 19.5292C19.249 19.8095 18.7945 19.8095 18.5142 19.5292L14.4538 15.4688C14.1735 15.1885 14.1735 14.734 14.4538 14.4537Z" fill="white"/>
</g>
<defs>
<clipPath id="clip0_245_1171">
<rect width="20" height="20" fill="white"/>
</clipPath>
</defs>
</svg>
