<svg width="20" height="20" viewBox="0 0 20 20" fill="none" xmlns="http://www.w3.org/2000/svg">
<g id="Search" clip-path="url(#clip0_314_1480)">
<g id="Vector">
<path d="M0.260376 9.11312C0.260376 4.22397 4.22385 0.260498 9.113 0.260498C14.0022 0.260498 17.9656 4.22397 17.9656 9.11312C17.9656 14.0023 14.0022 17.9657 9.113 17.9657C4.22385 17.9657 0.260376 14.0023 0.260376 9.11312ZM9.113 1.69606C5.01669 1.69606 1.69594 5.01681 1.69594 9.11312C1.69594 13.2094 5.01669 16.5302 9.113 16.5302C13.2093 16.5302 16.5301 13.2094 16.5301 9.11312C16.5301 5.01681 13.2093 1.69606 9.113 1.69606Z" fill="#19181B"/>
<path d="M14.4538 14.454C14.7341 14.1736 15.1886 14.1736 15.4689 14.454L19.5293 18.5143C19.8096 18.7947 19.8096 19.2491 19.5293 19.5294C19.249 19.8097 18.7945 19.8097 18.5142 19.5294L14.4538 15.4691C14.1735 15.1887 14.1735 14.7343 14.4538 14.454Z" fill="#19181B"/>
</g>
</g>
<defs>
<clipPath id="clip0_314_1480">
<rect width="20" height="20" fill="white"/>
</clipPath>
</defs>
</svg>
