<svg width="20" height="20" viewBox="0 0 20 20" fill="none" xmlns="http://www.w3.org/2000/svg">
<g clip-path="url(#clip0_262_4687)">
<path d="M0.260406 9.11303C0.260406 4.22388 4.22388 0.260406 9.11303 0.260406C14.0022 0.260406 17.9657 4.22388 17.9657 9.11303C17.9657 14.0022 14.0022 17.9657 9.11303 17.9657C4.22388 17.9657 0.260406 14.0022 0.260406 9.11303ZM9.11303 1.69597C5.01672 1.69597 1.69597 5.01672 1.69597 9.11303C1.69597 13.2093 5.01672 16.5301 9.11303 16.5301C13.2093 16.5301 16.5301 13.2093 16.5301 9.11303C16.5301 5.01672 13.2093 1.69597 9.11303 1.69597Z" fill="#FF3F56"/>
<path d="M14.4539 14.4539C14.7342 14.1736 15.1886 14.1736 15.469 14.4539L19.5293 18.5143C19.8097 18.7946 19.8097 19.249 19.5293 19.5293C19.249 19.8097 18.7946 19.8097 18.5143 19.5293L14.4539 15.469C14.1736 15.1886 14.1736 14.7342 14.4539 14.4539Z" fill="#FF3F56"/>
</g>
<defs>
<clipPath id="clip0_262_4687">
<rect width="20" height="20" fill="white"/>
</clipPath>
</defs>
</svg>
