<svg width="14" height="24" viewBox="0 0 14 24" fill="none" xmlns="http://www.w3.org/2000/svg">
<g clip-path="url(#clip0_202_13)">
<path d="M12.8765 1.28992C13.1679 1.58125 13.3135 1.93392 13.3135 2.34792C13.3135 2.76192 13.1679 3.11459 12.8765 3.40592L4.45852 11.8239L12.8765 20.2419C13.1679 20.5333 13.3135 20.8859 13.3135 21.2999C13.3135 21.7139 13.1679 22.0666 12.8765 22.3579C12.5852 22.6493 12.2325 22.7949 11.8185 22.7949C11.4045 22.7949 11.0442 22.6493 10.7375 22.3579L1.72152 13.3419C1.52219 13.1119 1.36886 12.8781 1.26152 12.6404C1.15419 12.4028 1.10052 12.1344 1.10052 11.8354C1.10052 11.5364 1.15419 11.2643 1.26152 11.0189C1.36886 10.7736 1.52219 10.5359 1.72152 10.3059L10.7375 1.28992C11.0442 0.983255 11.4045 0.829922 11.8185 0.829922C12.2325 0.829922 12.5852 0.983255 12.8765 1.28992Z" fill="#19181B"/>
</g>
<defs>
<clipPath id="clip0_202_13">
<rect width="12.86" height="23" fill="white" transform="matrix(1 0 0 -1 0.570007 23.3242)"/>
</clipPath>
</defs>
</svg>
